<?xml version="1.0" standalone="no"?>
<!DOCTYPE svg PUBLIC "-//W3C//DTD SVG 20010904//EN"
 "http://www.w3.org/TR/2001/REC-SVG-20010904/DTD/svg10.dtd">
<svg version="1.0" xmlns="http://www.w3.org/2000/svg"
 width="256.000000pt" height="256.000000pt" viewBox="0 0 256.000000 256.000000"
 preserveAspectRatio="xMidYMid meet">

<g transform="translate(0.000000,256.000000) scale(0.100000,-0.100000)"
fill="#000000" stroke="none">
<path d="M1192 2495 c-12 -14 -32 -25 -45 -25 -13 0 -32 -9 -42 -20 -10 -11
-31 -20 -46 -20 -17 0 -30 -6 -34 -17 -3 -10 -23 -31 -45 -48 -28 -22 -39 -38
-40 -58 0 -15 -9 -35 -20 -44 -17 -15 -20 -30 -20 -90 0 -62 3 -74 20 -83 12
-7 20 -21 20 -38 0 -36 90 -125 134 -132 19 -3 31 -11 31 -20 0 -13 -28 -15
-180 -18 l-180 -2 -41 -45 c-27 -29 -50 -45 -65 -45 -30 -1 -129 -99 -129
-127 0 -11 9 -28 20 -38 11 -10 20 -29 20 -42 0 -13 11 -33 25 -45 24 -20 25
-27 25 -126 0 -96 -2 -106 -25 -134 -20 -24 -25 -40 -25 -87 0 -48 4 -61 25
-81 25 -23 25 -25 25 -195 0 -170 0 -172 -25 -193 -23 -20 -25 -29 -25 -101 0
-77 1 -81 35 -116 l34 -37 31 30 c24 25 30 39 30 74 0 51 13 68 51 68 31 0 39
-15 39 -72 0 -31 7 -46 30 -70 l31 -30 34 33 c34 33 35 36 35 117 0 75 -2 84
-25 104 -25 21 -25 24 -25 173 0 149 0 152 25 173 16 14 25 32 25 52 0 16 5
30 10 30 6 0 53 -43 105 -95 l95 -95 0 -110 c0 -99 -2 -111 -20 -122 -17 -11
-20 -24 -20 -88 0 -64 3 -77 20 -88 19 -12 20 -23 20 -230 l0 -218 33 -32 33
-32 379 0 c209 0 386 4 393 9 9 5 12 25 10 62 -3 53 -4 54 -35 57 -20 2 -37
11 -43 23 -7 11 -21 19 -38 19 -19 0 -41 14 -71 45 -31 31 -53 45 -72 45 -35
0 -39 13 -39 131 0 93 1 100 25 121 22 19 25 30 25 88 0 58 -3 69 -25 88 -24
21 -25 27 -25 124 l0 103 64 66 c43 44 65 76 68 95 2 24 8 30 34 32 23 2 39
-5 62 -26 l32 -30 0 -156 c0 -145 -1 -156 -20 -166 -18 -10 -20 -21 -20 -110
0 -90 2 -99 20 -105 11 -3 20 -12 20 -20 0 -14 21 -25 48 -25 9 0 31 15 49 33
25 26 32 43 35 82 2 36 7 50 18 50 11 0 16 -14 18 -50 3 -39 10 -56 35 -82 33
-34 64 -42 85 -21 8 8 12 49 12 120 0 97 -2 109 -20 120 -19 12 -20 24 -20
175 0 152 1 163 20 173 18 10 20 21 20 105 0 84 -2 95 -20 105 -19 10 -20 21
-20 229 l0 218 -32 34 c-28 28 -38 33 -75 31 -34 -1 -47 3 -65 23 -23 24 -27
25 -203 27 -152 3 -180 5 -180 18 0 9 11 16 30 18 37 4 135 96 135 128 0 11
10 32 23 45 31 34 30 139 -2 173 -11 12 -21 31 -21 43 0 27 -97 123 -125 123
-12 0 -30 9 -40 20 -10 11 -29 20 -42 20 -13 0 -33 11 -45 25 -21 25 -24 25
-173 25 -149 0 -152 0 -173 -25z m5 -187 c55 -55 73 -79 73 -100 0 -17 7 -31
20 -38 12 -7 20 -21 20 -37 0 -34 60 -93 94 -93 14 0 31 -9 40 -22 12 -16 26
-22 63 -22 37 -1 54 -8 76 -27 35 -34 34 -39 -7 -39 -18 0 -39 -7 -46 -15 -19
-23 -99 -20 -125 5 -17 16 -36 20 -103 21 -45 1 -82 5 -82 10 0 5 7 9 15 9 8
0 15 4 15 9 0 4 -27 11 -60 15 -35 4 -58 11 -55 17 4 5 10 7 15 4 5 -3 11 -1
15 5 4 6 -8 10 -30 10 -29 0 -38 5 -42 21 -3 11 -16 25 -29 30 -15 5 -24 17
-24 29 0 13 -6 20 -16 18 -13 -3 -15 13 -18 100 -1 57 2 106 6 109 5 3 13 16
18 29 8 20 16 24 52 24 39 0 48 -5 115 -72z m251 -25 c-2 -44 -7 -58 -18 -58
-11 0 -16 14 -18 58 -3 52 -1 57 18 57 19 0 21 -5 18 -57z m130 3 c4 -55 -9
-76 -33 -56 -28 23 -17 114 14 108 12 -2 17 -17 19 -52z m-479 -497 l29 -29
215 0 215 0 31 29 c32 30 33 30 164 33 73 2 138 1 145 -1 8 -2 -4 -20 -32 -47
-54 -50 -59 -83 -21 -116 15 -13 25 -32 25 -49 0 -18 7 -32 20 -39 18 -10 20
-21 20 -120 0 -99 -2 -110 -20 -120 -16 -8 -20 -21 -20 -59 0 -51 -11 -67 -46
-68 -34 -2 -84 -56 -84 -92 l0 -31 -337 2 -338 3 -3 28 c-2 15 -12 32 -23 37
-17 9 -19 22 -19 102 0 85 -2 92 -26 115 -22 20 -25 30 -21 59 5 27 1 40 -19
61 -19 20 -24 37 -24 75 0 34 -5 50 -15 54 -8 3 -24 22 -36 42 -12 21 -39 54
-61 74 -36 36 -51 82 -28 90 5 2 70 2 145 0 134 -3 135 -3 164 -33z m1012
-409 c-12 -7 -91 -4 -99 4 -2 3 1 19 8 36 7 18 10 51 8 81 -5 50 -4 52 27 65
17 7 38 21 46 30 12 15 14 3 17 -96 2 -67 -1 -116 -7 -120z m-1313 68 l-3
-113 -45 -6 c-25 -3 -51 -4 -57 -2 -15 6 -17 39 -3 48 6 3 10 35 10 70 0 64 0
65 34 79 18 8 37 19 40 25 20 32 26 3 24 -101z m1317 -508 l0 -115 -27 -3
c-55 -6 -61 6 -60 114 1 55 1 102 2 106 0 9 30 16 60 15 l25 -2 0 -115z
m-1315 -45 l0 -115 -38 0 c-21 0 -43 5 -50 12 -13 13 -17 199 -5 211 3 4 26 7
50 7 l43 0 0 -115z m648 -36 c2 -105 1 -117 -18 -134 -29 -26 -29 -143 0 -170
18 -16 20 -31 20 -152 0 -112 -3 -135 -16 -140 -9 -3 -21 3 -30 16 -9 13 -26
21 -43 21 -17 0 -31 7 -35 16 -3 9 -6 62 -6 120 0 93 2 105 20 116 17 11 20
24 20 88 0 64 -3 77 -20 88 -18 11 -20 23 -20 116 0 58 3 112 6 121 5 13 18
15 63 13 l56 -3 3 -116z m-180 18 c2 -73 0 -88 -13 -93 -28 -11 -38 13 -38 89
0 81 6 100 31 95 14 -3 18 -19 20 -91z m342 -3 c0 -93 -1 -95 -22 -92 -21 3
-23 9 -26 82 -3 92 0 106 28 106 19 0 20 -6 20 -96z m555 -137 c9 -35 1 -162
-10 -162 -5 0 -11 32 -13 70 -2 39 -7 74 -13 80 -12 12 -150 7 -167 -7 -9 -8
-13 -31 -12 -67 2 -76 2 -81 -10 -81 -11 0 -14 172 -3 183 3 4 55 7 114 7 105
0 109 -1 114 -23z m-1327 -114 c2 -60 -1 -93 -8 -93 -6 0 -10 28 -10 68 0 40
-5 73 -12 80 -7 7 -41 12 -83 12 -42 0 -76 -5 -83 -12 -7 -7 -12 -40 -12 -80
0 -39 -4 -68 -10 -68 -11 0 -14 173 -3 184 4 3 54 5 112 4 l106 -3 3 -92z
m430 -236 c2 -54 0 -68 -13 -73 -27 -11 -40 12 -39 68 1 62 9 80 32 76 14 -3
18 -17 20 -71z m340 -6 c3 -71 2 -72 -20 -69 -21 3 -23 9 -26 67 -2 45 1 67
10 72 25 17 33 2 36 -70z m-248 -156 c13 -14 35 -25 49 -25 15 0 31 -8 39 -20
8 -13 23 -20 42 -20 20 0 30 -5 30 -15 0 -13 -22 -15 -137 -15 -76 0 -143 4
-150 8 -10 6 -17 53 -14 89 1 13 27 20 82 22 26 1 42 -6 59 -24z m340 0 c13
-14 35 -25 49 -25 15 0 31 -8 39 -20 8 -13 23 -20 42 -20 20 0 30 -5 30 -15 0
-12 -19 -15 -109 -15 -105 0 -109 1 -125 25 -9 14 -23 25 -31 25 -20 0 -45 28
-39 45 6 15 29 22 85 24 26 1 42 -6 59 -24z"/>
<path d="M1020 2215 c0 -8 5 -15 10 -15 6 0 10 7 10 15 0 8 -4 15 -10 15 -5 0
-10 -7 -10 -15z"/>
<path d="M1335 1672 c-11 -2 -55 -38 -97 -80 l-78 -77 0 -65 0 -65 78 -78 77
-77 83 0 83 0 74 74 75 75 0 71 0 72 -76 76 -77 76 -61 1 c-33 0 -70 -1 -81
-3z m185 -112 c50 -49 50 -49 50 -115 0 -53 -3 -67 -17 -72 -10 -3 -33 -21
-50 -40 -18 -18 -39 -33 -46 -33 -15 0 -182 161 -197 189 -6 13 2 26 31 56 21
21 39 44 39 52 0 9 19 13 70 13 l71 0 49 -50z"/>
</g>
</svg>
